<?xml version="1.0" encoding="UTF-8"?><svg xmlns="http://www.w3.org/2000/svg" xmlns:xlink="http://www.w3.org/1999/xlink" contentScriptType="text/ecmascript" width="1125" zoomAndPan="magnify" contentStyleType="text/css" viewBox="0 0 1125 374.999991" height="374.999991" preserveAspectRatio="xMidYMid meet" version="1.0"><path fill="rgb(100%, 87.059021%, 34.899902%)" d="M 147.605469 274.648438 C 147.605469 279.320312 146.632812 283.988281 144.683594 288.65625 C 136.890625 306.945312 115.847656 315.503906 97.535156 307.722656 C 48.828125 287.296875 17.460938 240.019531 17.460938 187.296875 C 17.460938 134.574219 48.828125 87.300781 97.535156 66.679688 C 115.847656 58.894531 137.085938 67.457031 144.683594 85.742188 C 152.476562 104.03125 143.902344 125.238281 125.589844 132.824219 C 103.769531 142.164062 89.546875 163.5625 89.546875 187.296875 C 89.546875 211.03125 103.769531 232.238281 125.589844 241.578125 C 139.226562 247.21875 147.605469 260.640625 147.605469 274.648438 Z M 147.605469 274.648438 " fill-opacity="1" fill-rule="nonzero"/><path fill="rgb(100%, 87.059021%, 34.899902%)" d="M 151.855469 252.234375 C 151.421875 251.074219 151.058594 249.84375 150.699219 248.683594 L 249.972656 149.410156 C 251.132812 149.769531 252.363281 150.132812 253.523438 150.566406 Z M 238.378906 146.871094 C 237.003906 146.65625 235.554688 146.511719 234.175781 146.363281 L 147.582031 232.960938 C 147.726562 234.335938 147.871094 235.785156 148.089844 237.164062 Z M 272.148438 160.207031 C 271.207031 159.554688 270.261719 158.902344 269.320312 158.320312 L 159.539062 268.105469 C 160.117188 269.046875 160.769531 269.988281 161.421875 270.929688 Z M 260.191406 153.320312 C 259.105469 152.816406 258.015625 152.308594 256.929688 151.871094 L 153.160156 255.640625 C 153.597656 256.726562 154.105469 257.816406 154.609375 258.902344 Z M 266.351562 156.582031 C 265.335938 156.003906 264.320312 155.421875 263.308594 154.914062 L 156.058594 262.164062 C 156.566406 263.175781 157.148438 264.191406 157.726562 265.207031 Z M 194.828125 152.667969 C 191.421875 154.191406 188.089844 155.929688 184.902344 157.886719 L 159.105469 183.683594 C 157.074219 186.871094 155.335938 190.207031 153.886719 193.613281 Z M 225.046875 146.003906 L 147.21875 223.828125 C 147.21875 225.421875 147.21875 226.945312 147.292969 228.539062 L 229.683594 146.074219 C 228.160156 146.003906 226.566406 146.003906 225.046875 146.003906 Z M 306.277344 225.132812 L 226.351562 305.0625 C 227.945312 305.0625 229.609375 305.0625 231.207031 304.917969 L 306.132812 229.988281 C 306.207031 228.394531 306.277344 226.726562 306.277344 225.132812 Z M 277.511719 164.335938 C 276.640625 163.613281 275.769531 162.886719 274.902344 162.234375 L 163.453125 273.683594 C 164.105469 274.554688 164.828125 275.421875 165.554688 276.292969 Z M 220.046875 146.292969 C 218.234375 146.4375 216.496094 146.65625 214.683594 146.945312 L 148.160156 213.46875 C 147.871094 215.277344 147.65625 217.019531 147.507812 218.828125 Z M 208.886719 148.03125 C 206.710938 148.539062 204.539062 149.117188 202.363281 149.84375 L 150.988281 201.148438 C 150.335938 203.320312 149.683594 205.421875 149.175781 207.667969 Z M 246.207031 148.394531 C 244.902344 148.105469 243.667969 147.816406 242.363281 147.523438 L 148.742188 241.148438 C 149.03125 242.453125 149.320312 243.683594 149.609375 244.988281 Z M 304.828125 240.714844 C 305.191406 238.828125 305.480469 237.019531 305.699219 235.132812 L 236.351562 304.480469 C 238.234375 304.265625 240.117188 303.972656 241.929688 303.613281 Z M 306.132812 220.570312 C 306.0625 219.117188 305.914062 217.667969 305.769531 216.21875 L 217.4375 304.480469 C 218.886719 304.625 220.335938 304.773438 221.785156 304.84375 Z M 305.117188 212.089844 C 304.902344 210.785156 304.613281 209.480469 304.320312 208.175781 L 209.320312 303.105469 C 210.625 303.394531 211.929688 303.683594 213.234375 303.902344 Z M 282.4375 168.757812 C 281.640625 167.960938 280.84375 167.234375 280.046875 166.4375 L 167.726562 278.757812 C 168.453125 279.554688 169.25 280.351562 170.046875 281.148438 Z M 287.074219 277.308594 C 291.0625 272.671875 294.394531 267.742188 297.148438 262.523438 L 263.742188 295.929688 C 268.960938 293.175781 273.886719 289.84375 278.523438 285.859375 Z M 303.378906 204.410156 C 303.015625 203.175781 302.65625 202.019531 302.292969 200.785156 L 202.003906 301.074219 C 203.234375 301.4375 204.394531 301.800781 205.625 302.164062 Z M 301.0625 253.972656 C 301.929688 251.65625 302.726562 249.335938 303.378906 246.945312 L 248.160156 302.164062 C 250.554688 301.511719 252.871094 300.714844 255.191406 299.84375 Z M 291.207031 178.902344 C 290.554688 178.03125 289.902344 177.089844 289.175781 176.21875 L 177.4375 287.886719 C 178.308594 288.613281 179.25 289.265625 180.117188 289.917969 Z M 301.0625 197.308594 C 300.625 196.148438 300.191406 195.0625 299.683594 193.972656 L 195.117188 298.539062 C 196.207031 299.046875 197.363281 299.480469 198.453125 299.917969 Z M 287.003906 173.613281 C 286.277344 172.742188 285.554688 171.945312 284.757812 171.148438 L 172.363281 283.539062 C 173.160156 284.335938 174.03125 285.0625 174.828125 285.785156 Z M 294.902344 184.554688 C 294.320312 183.613281 293.742188 182.597656 293.089844 181.65625 L 182.871094 291.875 C 183.8125 292.523438 184.757812 293.105469 185.769531 293.683594 Z M 298.234375 190.714844 C 297.726562 189.699219 297.21875 188.613281 296.640625 187.597656 L 188.8125 295.421875 C 189.828125 296.003906 190.84375 296.511719 191.929688 297.019531 Z M 298.234375 190.714844 " fill-opacity="1" fill-rule="nonzero"/><path fill="rgb(100%, 87.059021%, 34.899902%)" d="M 713.304688 269.050781 C 719.953125 271.289062 727.507812 272.761719 734.925781 272.761719 C 742.34375 272.761719 749.484375 271.5 756.0625 269.257812 C 756.203125 269.1875 756.34375 269.1875 756.480469 269.117188 C 781.1875 260.152344 799.382812 236.472656 799.730469 208.804688 L 799.730469 114.511719 L 670.054688 114.511719 L 670.054688 208.734375 C 670.402344 236.613281 688.320312 260.292969 713.304688 269.050781 Z M 713.304688 269.050781 " fill-opacity="1" fill-rule="nonzero"/><path fill="rgb(100%, 87.059021%, 34.899902%)" d="M 846.351562 267.082031 L 799.675781 259.273438 L 821.925781 125.925781 L 899.804688 159.453125 L 916.683594 99.433594 L 962.210938 112.359375 L 930.625 224.335938 L 858.628906 193.367188 Z M 846.351562 267.082031 " fill-opacity="1" fill-rule="nonzero"/><path fill="rgb(100%, 87.059021%, 34.899902%)" d="M 1035.152344 289.175781 C 995.0625 289.175781 962.339844 256.453125 962.339844 216.253906 C 962.339844 176.160156 995.0625 143.4375 1035.152344 143.4375 C 1075.351562 143.4375 1107.96875 176.160156 1107.96875 216.253906 C 1108.074219 256.453125 1075.351562 289.175781 1035.152344 289.175781 Z M 1035.152344 183.527344 C 1017.167969 183.527344 1002.429688 198.265625 1002.429688 216.253906 C 1002.429688 234.238281 1017.167969 248.976562 1035.152344 248.976562 C 1053.140625 248.976562 1067.875 234.238281 1067.875 216.253906 C 1067.875 198.265625 1053.25 183.527344 1035.152344 183.527344 Z M 1035.152344 183.527344 " fill-opacity="1" fill-rule="nonzero"/><path fill="rgb(100%, 87.059021%, 34.899902%)" d="M 344.386719 271.722656 L 306.988281 249.203125 L 382.332031 125.359375 L 442.171875 192.367188 L 485.957031 118.457031 L 537.402344 190.003906 L 585.929688 120.636719 L 670.03125 231.042969 L 635.1875 257.375 L 587.390625 194.726562 L 537.949219 265.546875 L 489.605469 198.175781 L 449.285156 265.910156 L 389.082031 198.539062 Z M 344.386719 271.722656 " fill-opacity="1" fill-rule="nonzero"/></svg>