<svg xmlns="http://www.w3.org/2000/svg" width="375" viewBox="0 0 375 375" height="375" version="1.0"><path fill="#FFCD00" d="M 246.839844 306.925781 C 246.839844 313.324219 245.503906 319.722656 242.835938 326.121094 C 232.15625 351.179688 203.324219 362.910156 178.230469 352.246094 C 111.488281 324.253906 68.507812 259.476562 68.507812 187.234375 C 68.507812 114.988281 111.488281 50.210938 178.230469 21.953125 C 203.324219 11.289062 232.425781 23.019531 242.835938 48.078125 C 253.515625 73.136719 241.769531 102.191406 216.671875 112.589844 C 186.773438 125.386719 167.285156 154.710938 167.285156 187.234375 C 167.285156 219.753906 186.773438 248.8125 216.671875 261.609375 C 235.359375 269.339844 246.839844 287.734375 246.839844 306.925781 Z M 246.839844 306.925781"/><path fill="#FFCD00" d="M 241.347656 253.324219 C 205.265625 253.324219 175.816406 223.875 175.816406 187.695312 C 175.816406 151.613281 205.265625 122.160156 241.347656 122.160156 C 277.527344 122.160156 306.882812 151.613281 306.882812 187.695312 C 306.980469 223.875 277.527344 253.324219 241.347656 253.324219 Z M 241.347656 158.242188 C 225.160156 158.242188 211.898438 171.507812 211.898438 187.695312 C 211.898438 203.882812 225.160156 217.144531 241.347656 217.144531 C 257.535156 217.144531 270.800781 203.882812 270.800781 187.695312 C 270.800781 171.507812 257.632812 158.242188 241.347656 158.242188 Z M 241.347656 158.242188"/></svg>